<svg width="47" height="47" viewBox="0 0 47 47" fill="none" xmlns="http://www.w3.org/2000/svg">
<circle cx="23.5" cy="23.5" r="23.5" fill="#1E1E1E"/>
<path d="M24 10.5172C16.824 10.5172 11 16.3373 11 23.5085C11 30.6797 16.824 36.4998 24 36.4998H30.5V33.9016H24C18.358 33.9016 13.6 29.1467 13.6 23.5085C13.6 17.8703 18.358 13.1154 24 13.1154C29.642 13.1154 34.4 17.8703 34.4 23.5085V25.3663C34.4 26.3926 33.477 27.4059 32.45 27.4059C31.423 27.4059 30.5 26.3926 30.5 25.3663V23.5085C30.5 19.9229 27.588 17.0128 24 17.0128C20.412 17.0128 17.5 19.9229 17.5 23.5085C17.5 27.0941 20.412 30.0042 24 30.0042C25.794 30.0042 27.432 29.2766 28.602 28.0944C29.447 29.2507 30.903 30.0042 32.45 30.0042C35.011 30.0042 37 27.9256 37 25.3663V23.5085C37 16.3373 31.176 10.5172 24 10.5172ZM24 27.4059C21.842 27.4059 20.1 25.6651 20.1 23.5085C20.1 21.3519 21.842 19.6111 24 19.6111C26.158 19.6111 27.9 21.3519 27.9 23.5085C27.9 25.6651 26.158 27.4059 24 27.4059Z" fill="#8979B6"/>
</svg>
