<svg width="47" height="47" viewBox="0 0 47 47" fill="none" xmlns="http://www.w3.org/2000/svg">
<circle cx="23.5" cy="23.5" r="23.5" fill="#1E1E1E"/>
<path d="M24 10.5172C20.4694 10.5172 20.0267 10.5321 18.6401 10.5953C17.2564 10.6585 16.3114 10.878 15.4845 11.1992C14.6296 11.5312 13.9046 11.9754 13.1819 12.6977C12.4592 13.4199 12.0147 14.1444 11.6825 14.9987C11.3611 15.825 11.1413 16.7694 11.0782 18.1522C11.0149 19.5378 11 19.9803 11 23.5085C11 27.0367 11.0149 27.4791 11.0782 28.8648C11.1413 30.2476 11.3611 31.192 11.6825 32.0183C12.0147 32.8726 12.4592 33.5971 13.1819 34.3194C13.9046 35.0416 14.6296 35.4858 15.4845 35.8178C16.3114 36.139 17.2564 36.3586 18.6401 36.4217C20.0267 36.4849 20.4694 36.4998 24 36.4998C27.5306 36.4998 27.9733 36.4849 29.3599 36.4217C30.7436 36.3586 31.6886 36.139 32.5155 35.8178C33.3704 35.4858 34.0953 35.0416 34.8181 34.3194C35.5408 33.5971 35.9853 32.8726 36.3175 32.0183C36.6389 31.192 36.8587 30.2476 36.9218 28.8648C36.985 27.4791 37 27.0367 37 23.5085C37 19.9803 36.985 19.5378 36.9218 18.1522C36.8587 16.7694 36.6389 15.825 36.3175 14.9987C35.9853 14.1444 35.5408 13.4199 34.8181 12.6977C34.0953 11.9754 33.3704 11.5312 32.5155 11.1992C31.6886 10.878 30.7436 10.6585 29.3599 10.5953C27.9733 10.5321 27.5306 10.5172 24 10.5172ZM24 12.858C27.4711 12.858 27.8823 12.8712 29.2531 12.9337C30.5206 12.9915 31.2089 13.2031 31.667 13.381C32.2738 13.6167 32.7069 13.8982 33.1618 14.3528C33.6167 14.8074 33.8984 15.2402 34.1342 15.8466C34.3123 16.3044 34.5241 16.9922 34.5819 18.2589C34.6444 19.6288 34.6577 20.0397 34.6577 23.5085C34.6577 26.9773 34.6444 27.3882 34.5819 28.7581C34.5241 30.0248 34.3123 30.7126 34.1342 31.1704C33.8984 31.7768 33.6167 32.2096 33.1618 32.6642C32.7069 33.1188 32.2738 33.4003 31.667 33.636C31.2089 33.8139 30.5206 34.0255 29.2531 34.0833C27.8825 34.1458 27.4714 34.1591 24 34.1591C20.5286 34.1591 20.1175 34.1458 18.7469 34.0833C17.4794 34.0255 16.7911 33.8139 16.333 33.636C15.7262 33.4003 15.2931 33.1188 14.8382 32.6642C14.3833 32.2096 14.1015 31.7768 13.8658 31.1704C13.6877 30.7126 13.4759 30.0248 13.4181 28.7581C13.3555 27.3882 13.3423 26.9773 13.3423 23.5085C13.3423 20.0397 13.3555 19.6288 13.4181 18.2589C13.4759 16.9922 13.6877 16.3044 13.8658 15.8466C14.1015 15.2402 14.3833 14.8074 14.8382 14.3528C15.2931 13.8982 15.7262 13.6167 16.333 13.381C16.7911 13.2031 17.4794 12.9915 18.7469 12.9337C20.1177 12.8712 20.5289 12.858 24 12.858Z" fill="#8979B6"/>
<path d="M24 27.839C21.6068 27.839 19.6667 25.9002 19.6667 23.5085C19.6667 21.1169 21.6068 19.1781 24 19.1781C26.3933 19.1781 28.3333 21.1169 28.3333 23.5085C28.3333 25.9002 26.3933 27.839 24 27.839ZM24 16.8373C20.3131 16.8373 17.3243 19.8241 17.3243 23.5085C17.3243 27.1929 20.3131 30.1797 24 30.1797C27.6869 30.1797 30.6757 27.1929 30.6757 23.5085C30.6757 19.8241 27.6869 16.8373 24 16.8373Z" fill="#8979B6"/>
<path d="M32.4995 16.5737C32.4995 17.4347 31.801 18.1326 30.9394 18.1326C30.0779 18.1326 29.3795 17.4347 29.3795 16.5737C29.3795 15.7127 30.0779 15.0147 30.9394 15.0147C31.801 15.0147 32.4995 15.7127 32.4995 16.5737Z" fill="#8979B6"/>
</svg>
