<svg width="47" height="47" viewBox="0 0 47 47" fill="none" xmlns="http://www.w3.org/2000/svg">
<circle cx="23.5" cy="23.5" r="23.5" fill="#1E1E1E"/>
<path d="M18.6527 10.5172C11.556 10.5172 11 11.0722 11 18.1648V28.8522C11 35.9442 11.556 36.4998 18.6527 36.4998H29.3473C36.444 36.4998 37 35.9448 37 28.8522V18.1648C37 11.0722 36.4446 10.5172 29.3473 10.5172H18.6527ZM16.9592 13.1154H31.0408C34.1563 13.1154 34.4 13.359 34.4 16.4724V30.5446C34.4 33.658 34.1556 33.9016 31.0408 33.9016H16.9592C13.8437 33.9016 13.6 33.6574 13.6 30.5446V16.4724C13.6 13.359 13.8437 13.1154 16.9592 13.1154ZM17.8263 14.7419C16.7674 14.7419 15.9093 15.5995 15.9093 16.6563C15.9093 17.7132 16.7668 18.572 17.8263 18.572C18.8825 18.572 19.7407 17.7138 19.7407 16.6563C19.7407 15.6008 18.8825 14.7419 17.8263 14.7419ZM27.8568 19.8204C26.2578 19.8204 25.1852 20.6973 24.7465 21.5281H24.7008V20.0843H21.5485V30.6537H24.8328V25.4242C24.8328 24.0452 25.0968 22.7105 26.8069 22.7105C28.493 22.7105 28.5144 24.2886 28.5144 25.5143V30.6537H31.8V24.8558C31.8 22.0094 31.1855 19.8204 27.8568 19.8204ZM16.1822 20.0843V30.6537H19.469V20.0843H16.1822Z" fill="#8979B6"/>
</svg>
