<svg width="63" height="63" viewBox="0 0 63 63" fill="none" xmlns="http://www.w3.org/2000/svg">
<g clip-path="url(#clip0_92_147)">
<path d="M27.7916 0.3843V47.6532C27.7916 48.0585 27.7812 48.4533 27.7623 48.8418C27.7143 49.392 27.662 49.9191 27.5993 50.4147C27.5429 50.8893 27.4781 51.3387 27.4008 51.7545C27.2127 52.6806 26.9577 53.5458 26.6275 54.3522C25.8521 56.2632 24.7466 57.8592 23.3066 59.136C21.8667 60.417 20.1404 61.3788 18.1278 62.0256C16.3932 62.5821 14.4767 62.8992 12.3763 62.9748C12.0378 62.9895 11.695 62.9958 11.346 62.9958C11.0618 62.9916 10.7838 62.9832 10.5121 62.9748C8.73567 62.9139 7.21002 62.7459 5.93517 62.4645C4.58926 62.1684 1.35615 61.1247 0.246396 60.69C0.0938319 60.6291 -0.00439453 60.4905 -0.00439453 60.333V54.495C-0.00439453 54.2262 0.277745 54.0393 0.541076 54.1359C2.06463 54.6882 5.17235 55.671 6.35107 55.902C7.69907 56.1645 9.14529 56.2947 10.6939 56.2947C12.0879 56.2947 13.3732 56.1393 14.5498 55.8327C15.7265 55.524 16.7338 55.0011 17.5698 54.2598C18.4057 53.5206 19.0557 52.5357 19.5197 51.303C19.9857 50.0682 20.2156 48.5457 20.2156 46.7271V0.3843C20.2156 0.1701 20.3954 0 20.6169 0H27.3841C27.6077 0 27.7853 0.1701 27.7853 0.3843H27.7916Z" fill="url(#paint0_linear_92_147)"/>
<path d="M62.6768 0.485108L39.9154 57.8613C39.7252 58.3254 38.6155 60.2595 38.0303 60.8349C36.5235 62.3133 35.1504 62.4036 34.7178 62.37C34.6342 62.3763 34.5527 62.3742 34.467 62.3658C34.0344 62.3322 32.933 62.0025 31.8671 60.8622C31.0667 60.0054 30.4836 58.6341 30.4083 58.2036C30.2014 57.3573 30.0781 56.5026 29.9005 54.915C29.6664 52.815 29.6309 51.5823 29.6936 50.2992C29.8378 47.3802 29.5452 43.4238 29.6121 38.9529C29.6163 38.5728 30.1722 38.4804 30.3059 38.8395C32.0803 43.6128 33.9675 48.6297 35.5119 53.2644C35.5308 53.3211 35.5809 53.3568 35.6373 53.3568C35.6938 53.3568 35.7439 53.319 35.7627 53.2644C37.999 46.5486 40.4065 39.7677 42.9855 32.9301L55.1949 0.252008C55.245 0.115508 55.3809 0.0252075 55.5313 0.0252075H62.3382C62.5869 0.0252075 62.7583 0.262508 62.6747 0.485108H62.6768Z" fill="url(#paint1_linear_92_147)"/>
<path d="M7.54253 0.489308C7.45476 0.264608 7.62613 0.0252075 7.87901 0.0252075H14.6901C14.8385 0.0252075 14.9722 0.113408 15.0245 0.245708L18.5272 8.90401V8.90821C18.5439 11.9553 18.5523 19.7232 18.2701 25.7019C18.2534 26.0757 17.7163 26.1597 17.5783 25.8111L7.54253 0.489308Z" fill="url(#paint2_linear_92_147)"/>
</g>
<defs>
<linearGradient id="paint0_linear_92_147" x1="41.7084" y1="-14.5173" x2="-5.42571" y2="92.3507" gradientUnits="userSpaceOnUse">
<stop stop-color="#8979B6"/>
<stop offset="1" stop-color="#322B42"/>
</linearGradient>
<linearGradient id="paint1_linear_92_147" x1="58.6829" y1="-6.37769" x2="10.3585" y2="103.187" gradientUnits="userSpaceOnUse">
<stop stop-color="#8979B6"/>
<stop offset="0.99" stop-color="#322B42"/>
</linearGradient>
<linearGradient id="paint2_linear_92_147" x1="27.8357" y1="-21.1722" x2="-5.61663" y2="54.6748" gradientUnits="userSpaceOnUse">
<stop stop-color="#8979B6"/>
<stop offset="0.99" stop-color="#322B42"/>
</linearGradient>
<clipPath id="clip0_92_147">
<rect width="63" height="63" fill="white"/>
</clipPath>
</defs>
</svg>
