<svg width="202" height="58" viewBox="0 0 202 58" fill="none" xmlns="http://www.w3.org/2000/svg">
<g clip-path="url(#clip0_92_195)">
<path d="M78.025 42.16V44.5805H76.6074V37.7075H79.2934C79.8105 37.7075 80.2655 37.8023 80.6567 37.9898C81.0479 38.1773 81.35 38.4461 81.563 38.7941C81.7741 39.1421 81.8806 39.5384 81.8806 39.9811C81.8806 40.6539 81.6502 41.1856 81.1873 41.5742C80.7264 41.9628 80.0874 42.1581 79.2702 42.1581H78.0269L78.025 42.16ZM78.025 41.0135H79.2915C79.6672 41.0135 79.9518 40.9246 80.1493 40.7487C80.3469 40.5727 80.4456 40.3214 80.4456 39.9927C80.4456 39.6641 80.3469 39.3837 80.1474 39.1769C79.9479 38.97 79.6749 38.8617 79.3244 38.8559H78.025V41.0135Z" fill="#8979B6"/>
<path d="M85.1534 44.6753C84.4039 44.6753 83.792 44.4452 83.3214 43.987C82.8508 43.5288 82.6146 42.9159 82.6146 42.1503V42.0189C82.6146 41.5065 82.7133 41.0464 82.9128 40.6423C83.1123 40.2383 83.3931 39.927 83.7571 39.7085C84.1212 39.4901 84.5356 39.3799 85.0023 39.3799C85.7014 39.3799 86.2533 39.6003 86.6542 40.0411C87.055 40.4819 87.2564 41.1063 87.2564 41.9145V42.4713H83.9992C84.0437 42.8057 84.1774 43.0725 84.3981 43.2736C84.6189 43.4747 84.9016 43.5752 85.2424 43.5752C85.7692 43.5752 86.1797 43.3857 86.476 43.0049L87.148 43.755C86.9427 44.045 86.6658 44.2712 86.3153 44.4317C85.9648 44.5922 85.5775 44.6753 85.1514 44.6753H85.1534ZM84.9965 40.4799C84.7254 40.4799 84.5046 40.5708 84.3361 40.7545C84.1677 40.9381 84.0592 41.2011 84.0127 41.5413H85.9125V41.4331C85.9067 41.1295 85.8234 40.8956 85.6665 40.7293C85.5097 40.5631 85.285 40.4799 84.9946 40.4799H84.9965Z" fill="#8979B6"/>
<path d="M91.0036 40.7545C90.8177 40.7293 90.6531 40.7158 90.5117 40.7158C89.9947 40.7158 89.6558 40.8898 89.4951 41.2397V44.5825H88.1279V39.4746H89.4195L89.4583 40.0836C89.7333 39.6157 90.1128 39.3799 90.597 39.3799C90.748 39.3799 90.8894 39.4011 91.023 39.4417L91.0036 40.7545Z" fill="#8979B6"/>
<path d="M91.7473 38.1522C91.7473 37.9473 91.8151 37.7791 91.9526 37.6476C92.09 37.5162 92.276 37.4485 92.5122 37.4485C92.7485 37.4485 92.9305 37.5142 93.0699 37.6476C93.2094 37.7791 93.2771 37.9473 93.2771 38.1522C93.2771 38.3572 93.2074 38.5292 93.0661 38.6626C92.9247 38.796 92.7407 38.8618 92.5103 38.8618C92.2798 38.8618 92.0959 38.796 91.9545 38.6626C91.8131 38.5292 91.7434 38.361 91.7434 38.1522H91.7473ZM93.1997 44.5825H91.8286V39.4746H93.1997V44.5825Z" fill="#8979B6"/>
<path d="M96.058 38.22V39.4747H96.9333V40.4762H96.058V43.0243C96.058 43.2138 96.0948 43.3491 96.1665 43.4303C96.2381 43.5115 96.3775 43.5521 96.5828 43.5521C96.7339 43.5521 96.8675 43.5405 96.9856 43.5192V44.5536C96.7184 44.6348 96.4414 44.6754 96.1587 44.6754C95.2001 44.6754 94.7121 44.192 94.6928 43.2254V40.4742H93.9453V39.4728H94.6928V38.218H96.06L96.058 38.22Z" fill="#8979B6"/>
<path d="M100.754 44.5825C100.69 44.4607 100.646 44.3079 100.617 44.1243C100.285 44.4916 99.8556 44.6772 99.3249 44.6772C98.8234 44.6772 98.409 44.5322 98.0798 44.2422C97.7505 43.9522 97.5859 43.5868 97.5859 43.1479C97.5859 42.6066 97.7873 42.1909 98.1882 41.9009C98.5891 41.6109 99.17 41.466 99.9311 41.4621H100.56V41.1701C100.56 40.9343 100.5 40.7448 100.378 40.6037C100.256 40.4625 100.065 40.391 99.8033 40.391C99.5728 40.391 99.3927 40.4471 99.261 40.5553C99.1294 40.6636 99.0654 40.8163 99.0654 41.0077H97.6983C97.6983 40.7119 97.7893 40.4374 97.9732 40.1861C98.1553 39.9347 98.4148 39.7375 98.7479 39.5945C99.0809 39.4514 99.4566 39.3799 99.873 39.3799C100.502 39.3799 101.004 39.5384 101.374 39.8535C101.744 40.1687 101.93 40.6153 101.93 41.1875V43.4012C101.933 43.8865 102.001 44.2519 102.133 44.5013V44.5825H100.752H100.754ZM99.6251 43.6332C99.8265 43.6332 100.012 43.5887 100.183 43.4979C100.353 43.407 100.479 43.2871 100.56 43.1363V42.2586H100.049C99.3656 42.2586 99.0015 42.4945 98.957 42.9662L98.9531 43.0474C98.9531 43.2175 99.0132 43.3567 99.1332 43.4669C99.2533 43.5771 99.416 43.6313 99.6251 43.6313V43.6332Z" fill="#8979B6"/>
<path d="M108.452 37.7095H109.869V42.4674C109.869 42.9043 109.773 43.291 109.579 43.6255C109.385 43.9599 109.112 44.219 108.758 44.4027C108.405 44.5844 108.006 44.6772 107.561 44.6772C106.833 44.6772 106.265 44.4916 105.859 44.1223C105.452 43.7531 105.249 43.2291 105.249 42.5525H106.676C106.676 42.8889 106.748 43.1383 106.889 43.2987C107.03 43.4592 107.255 43.5404 107.561 43.5404C107.832 43.5404 108.047 43.4476 108.208 43.262C108.369 43.0764 108.45 42.8115 108.45 42.4693V37.7114L108.452 37.7095Z" fill="#8979B6"/>
<path d="M114.155 44.0624C113.818 44.4723 113.351 44.6753 112.755 44.6753C112.207 44.6753 111.788 44.5187 111.5 44.2035C111.211 43.8884 111.064 43.4283 111.058 42.8212V39.4746H112.426V42.7767C112.426 43.3084 112.668 43.5752 113.154 43.5752C113.64 43.5752 113.936 43.4147 114.108 43.0938V39.4746H115.48V44.5825H114.194L114.155 44.0624Z" fill="#8979B6"/>
<path d="M116.394 41.9899C116.394 41.1934 116.572 40.5592 116.93 40.0875C117.288 39.6158 117.776 39.3799 118.398 39.3799C118.896 39.3799 119.308 39.5655 119.631 39.9367V37.3306H121.003V44.5806H119.769L119.703 44.0373C119.362 44.4626 118.925 44.6753 118.388 44.6753C117.786 44.6753 117.304 44.4394 116.94 43.9658C116.576 43.4921 116.394 42.8348 116.394 41.9899ZM117.761 42.0924C117.761 42.5718 117.844 42.9392 118.011 43.1944C118.177 43.4496 118.421 43.5772 118.739 43.5772C119.161 43.5772 119.459 43.3993 119.631 43.0436V41.0252C119.461 40.6694 119.167 40.4916 118.746 40.4916C118.088 40.4916 117.759 41.0252 117.759 42.0943L117.761 42.0924Z" fill="#8979B6"/>
<path d="M122.149 38.1522C122.149 37.9473 122.217 37.7791 122.354 37.6476C122.492 37.5162 122.678 37.4485 122.914 37.4485C123.15 37.4485 123.332 37.5142 123.472 37.6476C123.611 37.7791 123.679 37.9473 123.679 38.1522C123.679 38.3572 123.609 38.5292 123.468 38.6626C123.326 38.796 123.142 38.8618 122.912 38.8618C122.681 38.8618 122.497 38.796 122.356 38.6626C122.215 38.5292 122.145 38.361 122.145 38.1522H122.149ZM123.601 44.5825H122.23V39.4746H123.601V44.5825Z" fill="#8979B6"/>
<path d="M126.952 43.5772C127.203 43.5772 127.409 43.5076 127.565 43.3703C127.722 43.2311 127.806 43.0474 127.811 42.8174H129.093C129.089 43.1634 128.996 43.4805 128.811 43.7686C128.625 44.0566 128.369 44.2809 128.048 44.4394C127.724 44.598 127.368 44.6772 126.977 44.6772C126.245 44.6772 125.67 44.4452 125.245 43.9812C124.823 43.5172 124.612 42.8754 124.612 42.0576V41.9686C124.612 41.1818 124.821 40.5534 125.242 40.0856C125.66 39.6177 126.235 39.3818 126.967 39.3818C127.606 39.3818 128.119 39.5636 128.507 39.927C128.894 40.2905 129.089 40.7738 129.095 41.379H127.813C127.807 41.1141 127.724 40.8976 127.567 40.7313C127.41 40.565 127.201 40.4819 126.944 40.4819C126.626 40.4819 126.384 40.5979 126.223 40.8299C126.063 41.0619 125.979 41.437 125.979 41.957V42.0982C125.979 42.624 126.061 43.003 126.221 43.233C126.382 43.4631 126.626 43.5791 126.953 43.5791L126.952 43.5772Z" fill="#8979B6"/>
<path d="M129.961 38.1522C129.961 37.9473 130.029 37.7791 130.166 37.6476C130.304 37.5162 130.49 37.4485 130.726 37.4485C130.962 37.4485 131.144 37.5142 131.284 37.6476C131.423 37.7791 131.491 37.9473 131.491 38.1522C131.491 38.3572 131.421 38.5292 131.28 38.6626C131.138 38.796 130.954 38.8618 130.724 38.8618C130.493 38.8618 130.309 38.796 130.168 38.6626C130.027 38.5292 129.957 38.361 129.957 38.1522H129.961ZM131.411 44.5825H130.04V39.4746H131.411V44.5825Z" fill="#8979B6"/>
<path d="M135.598 44.5825C135.534 44.4607 135.49 44.3079 135.461 44.1243C135.13 44.4916 134.7 44.6772 134.169 44.6772C133.667 44.6772 133.253 44.5322 132.924 44.2422C132.595 43.9522 132.43 43.5868 132.43 43.1479C132.43 42.6066 132.631 42.1909 133.032 41.9009C133.433 41.6109 134.014 41.466 134.775 41.4621H135.405V41.1701C135.405 40.9343 135.344 40.7448 135.222 40.6037C135.1 40.4625 134.909 40.391 134.647 40.391C134.417 40.391 134.237 40.4471 134.105 40.5553C133.973 40.6636 133.91 40.8163 133.91 41.0077H132.542C132.542 40.7119 132.633 40.4374 132.817 40.1861C132.999 39.9347 133.259 39.7375 133.592 39.5945C133.925 39.4514 134.301 39.3799 134.717 39.3799C135.346 39.3799 135.848 39.5384 136.218 39.8535C136.588 40.1687 136.774 40.6153 136.774 41.1875V43.4012C136.778 43.8865 136.845 44.2519 136.977 44.5013V44.5825H135.596H135.598ZM134.467 43.6332C134.669 43.6332 134.855 43.5887 135.025 43.4979C135.195 43.407 135.321 43.2871 135.403 43.1363V42.2586H134.891C134.208 42.2586 133.844 42.4945 133.799 42.9662L133.795 43.0474C133.795 43.2175 133.855 43.3567 133.975 43.4669C134.095 43.5771 134.258 43.6313 134.467 43.6313V43.6332Z" fill="#8979B6"/>
<path d="M139.363 44.5825H137.992V37.3325H139.363V44.5825Z" fill="#8979B6"/>
<path d="M148.081 38.8559H145.972V44.5805H144.555V38.8559H142.475V37.7095H148.083V38.8559H148.081Z" fill="#8979B6"/>
<path d="M151.464 40.7545C151.278 40.7293 151.114 40.7158 150.972 40.7158C150.455 40.7158 150.116 40.8898 149.956 41.2397V44.5825H148.588V39.4746H149.88L149.919 40.0836C150.194 39.6157 150.573 39.3799 151.058 39.3799C151.209 39.3799 151.35 39.4011 151.484 39.4417L151.464 40.7545Z" fill="#8979B6"/>
<path d="M155.041 44.5825C154.977 44.4607 154.933 44.3079 154.903 44.1243C154.572 44.4916 154.142 44.6772 153.612 44.6772C153.11 44.6772 152.696 44.5322 152.367 44.2422C152.037 43.9522 151.873 43.5868 151.873 43.1479C151.873 42.6066 152.074 42.1909 152.475 41.9009C152.876 41.6109 153.457 41.466 154.218 41.4621H154.847V41.1701C154.847 40.9343 154.787 40.7448 154.665 40.6037C154.543 40.4625 154.352 40.391 154.09 40.391C153.86 40.391 153.68 40.4471 153.548 40.5553C153.416 40.6636 153.352 40.8163 153.352 41.0077H151.985C151.985 40.7119 152.076 40.4374 152.26 40.1861C152.442 39.9347 152.702 39.7375 153.035 39.5945C153.368 39.4514 153.743 39.3799 154.16 39.3799C154.789 39.3799 155.291 39.5384 155.661 39.8535C156.031 40.1687 156.216 40.6153 156.216 41.1875V43.4012C156.22 43.8865 156.288 44.2519 156.42 44.5013V44.5825H155.039H155.041ZM153.91 43.6332C154.111 43.6332 154.297 43.5887 154.468 43.4979C154.638 43.407 154.764 43.2871 154.845 43.1363V42.2586H154.334C153.651 42.2586 153.286 42.4945 153.242 42.9662L153.238 43.0474C153.238 43.2175 153.298 43.3567 153.418 43.4669C153.538 43.5771 153.701 43.6313 153.91 43.6313V43.6332Z" fill="#8979B6"/>
<path d="M161.974 42.075C161.974 42.8928 161.799 43.5308 161.449 43.989C161.098 44.4472 160.61 44.6753 159.983 44.6753C159.427 44.6753 158.986 44.4626 158.655 44.0373L158.593 44.5806H157.363V37.3306H158.73V39.9309C159.046 39.5636 159.46 39.378 159.973 39.378C160.597 39.378 161.087 39.6061 161.441 40.0643C161.796 40.5225 161.974 41.1663 161.974 41.9976V42.073V42.075ZM160.608 41.9764C160.608 41.4602 160.527 41.0832 160.363 40.8454C160.198 40.6076 159.954 40.4896 159.631 40.4896C159.195 40.4896 158.897 40.6675 158.732 41.0232V43.0378C158.899 43.3974 159.201 43.5752 159.64 43.5752C160.08 43.5752 160.372 43.3587 160.51 42.9237C160.576 42.7168 160.608 42.3998 160.608 41.9744V41.9764Z" fill="#8979B6"/>
<path d="M165.878 44.5825C165.814 44.4607 165.769 44.3079 165.74 44.1243C165.409 44.4916 164.979 44.6772 164.449 44.6772C163.947 44.6772 163.533 44.5322 163.203 44.2422C162.874 43.9522 162.71 43.5868 162.71 43.1479C162.71 42.6066 162.911 42.1909 163.312 41.9009C163.713 41.6109 164.294 41.466 165.055 41.4621H165.684V41.1701C165.684 40.9343 165.624 40.7448 165.502 40.6037C165.38 40.4625 165.188 40.391 164.927 40.391C164.697 40.391 164.516 40.4471 164.385 40.5553C164.253 40.6636 164.189 40.8163 164.189 41.0077H162.822C162.822 40.7119 162.913 40.4374 163.097 40.1861C163.279 39.9347 163.538 39.7375 163.872 39.5945C164.205 39.4514 164.58 39.3799 164.997 39.3799C165.626 39.3799 166.128 39.5384 166.498 39.8535C166.867 40.1687 167.053 40.6153 167.053 41.1875V43.4012C167.057 43.8865 167.125 44.2519 167.257 44.5013V44.5825H165.876H165.878ZM164.747 43.6332C164.948 43.6332 165.134 43.5887 165.305 43.4979C165.475 43.407 165.601 43.2871 165.682 43.1363V42.2586H165.171C164.487 42.2586 164.123 42.4945 164.079 42.9662L164.075 43.0474C164.075 43.2175 164.135 43.3567 164.255 43.4669C164.375 43.5771 164.538 43.6313 164.747 43.6313V43.6332Z" fill="#8979B6"/>
<path d="M169.642 44.5825H168.271V37.3325H169.642V44.5825Z" fill="#8979B6"/>
<path d="M172.199 40.0314C172.561 39.5964 173.016 39.3799 173.566 39.3799C174.676 39.3799 175.237 40.0237 175.255 41.3113V44.5825H173.887V41.35C173.887 41.058 173.823 40.8415 173.698 40.7004C173.572 40.5612 173.363 40.4896 173.068 40.4896C172.667 40.4896 172.379 40.6443 172.199 40.9517V44.5806H170.831V37.3306H172.199V40.0295V40.0314Z" fill="#8979B6"/>
<path d="M176.37 38.1522C176.37 37.9473 176.438 37.7791 176.575 37.6476C176.713 37.5162 176.899 37.4485 177.135 37.4485C177.371 37.4485 177.553 37.5142 177.693 37.6476C177.832 37.7791 177.9 37.9473 177.9 38.1522C177.9 38.3572 177.83 38.5292 177.689 38.6626C177.547 38.796 177.363 38.8618 177.133 38.8618C176.903 38.8618 176.719 38.796 176.577 38.6626C176.436 38.5292 176.366 38.361 176.366 38.1522H176.37ZM177.822 44.5825H176.451V39.4746H177.822V44.5825Z" fill="#8979B6"/>
<path d="M181.814 43.1711C181.814 43.0049 181.73 42.8734 181.566 42.7767C181.401 42.6801 181.134 42.595 180.77 42.5196C179.554 42.2644 178.946 41.7482 178.946 40.971C178.946 40.5186 179.133 40.1397 179.511 39.8361C179.889 39.5326 180.381 39.3799 180.989 39.3799C181.637 39.3799 182.156 39.5326 182.546 39.8381C182.935 40.1435 183.13 40.5399 183.13 41.0271H181.763C181.763 40.8318 181.699 40.6714 181.573 40.5438C181.448 40.4162 181.25 40.3523 180.983 40.3523C180.752 40.3523 180.574 40.4045 180.448 40.5089C180.322 40.6133 180.259 40.7448 180.259 40.9053C180.259 41.0561 180.33 41.1779 180.473 41.2707C180.617 41.3635 180.859 41.4447 181.2 41.5123C181.541 41.58 181.827 41.6573 182.06 41.7405C182.782 42.0053 183.142 42.4635 183.142 43.1131C183.142 43.5791 182.943 43.9561 182.542 44.2442C182.141 44.5322 181.624 44.6753 180.991 44.6753C180.563 44.6753 180.181 44.5979 179.848 44.4471C179.515 44.2963 179.255 44.0856 179.066 43.8188C178.876 43.552 178.783 43.2659 178.783 42.9565H180.078C180.09 43.1982 180.181 43.3838 180.348 43.5134C180.514 43.6429 180.739 43.7067 181.02 43.7067C181.281 43.7067 181.479 43.6564 181.612 43.5578C181.746 43.4592 181.814 43.3297 181.814 43.1692V43.1711Z" fill="#8979B6"/>
<path d="M185.754 38.22V39.4747H186.63V40.4762H185.754V43.0243C185.754 43.2138 185.791 43.3491 185.863 43.4303C185.935 43.5115 186.074 43.5521 186.279 43.5521C186.43 43.5521 186.564 43.5405 186.682 43.5192V44.5536C186.415 44.6348 186.138 44.6754 185.855 44.6754C184.897 44.6754 184.409 44.192 184.389 43.2254V40.4742H183.642V39.4728H184.389V38.218H185.756L185.754 38.22Z" fill="#8979B6"/>
<path d="M190.452 44.5825C190.389 44.4607 190.344 44.3079 190.315 44.1243C189.984 44.4916 189.554 44.6772 189.023 44.6772C188.522 44.6772 188.107 44.5322 187.778 44.2422C187.449 43.9522 187.284 43.5868 187.284 43.1479C187.284 42.6066 187.486 42.1909 187.887 41.9009C188.287 41.6109 188.868 41.466 189.629 41.4621H190.259V41.1701C190.259 40.9343 190.199 40.7448 190.077 40.6037C189.955 40.4625 189.763 40.391 189.502 40.391C189.271 40.391 189.091 40.4471 188.959 40.5553C188.828 40.6636 188.764 40.8163 188.764 41.0077H187.397C187.397 40.7119 187.488 40.4374 187.672 40.1861C187.854 39.9347 188.113 39.7375 188.446 39.5945C188.779 39.4514 189.155 39.3799 189.571 39.3799C190.201 39.3799 190.702 39.5384 191.072 39.8535C191.442 40.1687 191.628 40.6153 191.628 41.1875V43.4012C191.632 43.8865 191.7 44.2519 191.831 44.5013V44.5825H190.451H190.452ZM189.322 43.6332C189.523 43.6332 189.709 43.5887 189.879 43.4979C190.05 43.407 190.176 43.2871 190.257 43.1363V42.2586H189.746C189.062 42.2586 188.698 42.4945 188.653 42.9662L188.65 43.0474C188.65 43.2175 188.71 43.3567 188.83 43.4669C188.95 43.5771 189.112 43.6313 189.322 43.6313V43.6332Z" fill="#8979B6"/>
<path d="M73.2049 14.1926H76.468V25.1353C76.468 26.1406 76.2453 27.03 75.7999 27.8014C75.3545 28.5728 74.7251 29.1682 73.9137 29.5878C73.1023 30.0073 72.1844 30.218 71.1619 30.218C69.4868 30.218 68.1815 29.7927 67.2481 28.942C66.3128 28.0914 65.8461 26.8888 65.8461 25.3325H69.1304C69.1304 26.1078 69.2931 26.6781 69.6204 27.0474C69.9477 27.4166 70.4608 27.6003 71.1638 27.6003C71.7874 27.6003 72.2831 27.3876 72.653 26.9604C73.0229 26.5331 73.2068 25.926 73.2068 25.1372V14.1946L73.2049 14.1926Z" fill="#8979B6"/>
<path d="M86.1449 28.8046C85.3683 29.7461 84.2955 30.2159 82.9263 30.2159C81.6656 30.2159 80.7032 29.8544 80.039 29.1294C79.3767 28.4063 79.0358 27.3449 79.0223 25.949V18.2524H82.1653V25.8504C82.1653 27.0742 82.723 27.6871 83.8404 27.6871C84.9578 27.6871 85.6375 27.3178 86.0364 26.5793V18.2544H89.1891V30.0013H86.232L86.1449 28.8065V28.8046Z" fill="#8979B6"/>
<path d="M94.9212 29.9995H91.7686V13.3245H94.9212V29.9995Z" fill="#8979B6"/>
<path d="M97.5317 15.2134C97.5317 14.7436 97.6885 14.355 98.0042 14.0515C98.3198 13.7479 98.7497 13.5952 99.292 13.5952C99.8342 13.5952 100.256 13.7479 100.576 14.0515C100.895 14.355 101.054 14.7436 101.054 15.2134C101.054 15.6832 100.893 16.0815 100.57 16.385C100.247 16.6885 99.8206 16.8413 99.292 16.8413C98.7633 16.8413 98.3373 16.6885 98.0139 16.385C97.6905 16.0815 97.5297 15.6909 97.5297 15.2134H97.5317ZM100.87 29.9995H97.7176V18.2526H100.87V29.9995Z" fill="#8979B6"/>
<path d="M110.321 29.9994C110.175 29.7171 110.071 29.3652 110.005 28.9457C109.244 29.7925 108.254 30.2159 107.036 30.2159C105.884 30.2159 104.929 29.8834 104.17 29.2164C103.413 28.5513 103.033 27.7103 103.033 26.6972C103.033 25.4522 103.496 24.4971 104.42 23.832C105.344 23.167 106.68 22.8306 108.427 22.8228H109.873V22.15C109.873 21.6068 109.734 21.1737 109.455 20.847C109.176 20.5222 108.734 20.3578 108.134 20.3578C107.605 20.3578 107.189 20.4854 106.889 20.7387C106.589 20.992 106.438 21.34 106.438 21.7808H103.295C103.295 21.1002 103.506 20.47 103.926 19.8919C104.346 19.3138 104.941 18.8595 105.71 18.5289C106.478 18.2002 107.34 18.0359 108.297 18.0359C109.747 18.0359 110.898 18.3994 111.75 19.1263C112.602 19.8532 113.028 20.876 113.028 22.1926V27.283C113.036 28.3986 113.19 29.2415 113.494 29.8118V29.9955H110.319L110.321 29.9994ZM107.722 27.8166C108.185 27.8166 108.612 27.7142 109.006 27.5073C109.397 27.3004 109.687 27.024 109.875 26.676V24.6576H108.702C107.129 24.6576 106.291 25.2008 106.19 26.2854L106.178 26.471C106.178 26.8616 106.316 27.1844 106.591 27.4377C106.866 27.691 107.243 27.8186 107.722 27.8186V27.8166Z" fill="#8979B6"/>
<path d="M118.38 18.2524L118.479 19.6096C119.32 18.5598 120.447 18.0359 121.86 18.0359C123.107 18.0359 124.035 18.4013 124.645 19.1321C125.255 19.8629 125.565 20.9552 125.58 22.411V29.9994H122.437V22.4864C122.437 21.8214 122.292 21.338 122.002 21.0364C121.711 20.7368 121.229 20.586 120.555 20.586C119.67 20.586 119.008 20.963 118.564 21.715V29.9974H115.421V18.2505H118.378L118.38 18.2524Z" fill="#8979B6"/>
<path d="M134.824 29.9994C134.678 29.7171 134.574 29.3652 134.508 28.9457C133.747 29.7925 132.757 30.2159 131.539 30.2159C130.387 30.2159 129.432 29.8834 128.673 29.2164C127.916 28.5513 127.536 27.7103 127.536 26.6972C127.536 25.4522 127.999 24.4971 128.923 23.832C129.847 23.167 131.183 22.8306 132.93 22.8228H134.376V22.15C134.376 21.6068 134.237 21.1737 133.958 20.847C133.679 20.5222 133.238 20.3578 132.637 20.3578C132.109 20.3578 131.692 20.4854 131.392 20.7387C131.092 20.992 130.941 21.34 130.941 21.7808H127.798C127.798 21.1002 128.007 20.47 128.429 19.8919C128.849 19.3119 129.444 18.8595 130.213 18.5289C130.981 18.2002 131.843 18.0359 132.8 18.0359C134.25 18.0359 135.401 18.3994 136.253 19.1263C137.105 19.8532 137.531 20.876 137.531 22.1926V27.283C137.539 28.3986 137.693 29.2415 137.999 29.8118V29.9955H134.824V29.9994ZM132.225 27.8166C132.689 27.8166 133.116 27.7142 133.509 27.5073C133.9 27.3004 134.19 27.024 134.378 26.676V24.6576H133.205C131.632 24.6576 130.794 25.2008 130.693 26.2854L130.681 26.471C130.681 26.8616 130.819 27.1844 131.094 27.4377C131.369 27.691 131.746 27.8186 132.225 27.8186V27.8166Z" fill="#8979B6"/>
<path d="M151.637 26.0807L155.225 14.1926H158.856L153.343 29.9996H149.938L144.446 14.1926H148.067L151.635 26.0807H151.637Z" fill="#8979B6"/>
<path d="M160.163 15.2134C160.163 14.7436 160.32 14.355 160.636 14.0515C160.951 13.7479 161.381 13.5952 161.923 13.5952C162.466 13.5952 162.888 13.7479 163.207 14.0515C163.527 14.355 163.686 14.7436 163.686 15.2134C163.686 15.6832 163.525 16.0815 163.201 16.385C162.878 16.6885 162.452 16.8413 161.923 16.8413C161.395 16.8413 160.969 16.6885 160.645 16.385C160.322 16.0815 160.161 15.6909 160.161 15.2134H160.163ZM163.502 29.9995H160.349V18.2526H163.502V29.9995Z" fill="#8979B6"/>
<path d="M171.548 30.2159C169.823 30.2159 168.419 29.6881 167.334 28.6306C166.25 27.575 165.709 26.1656 165.709 24.4082V24.1046C165.709 22.9253 165.938 21.8697 166.395 20.9398C166.852 20.0098 167.499 19.2926 168.335 18.7899C169.172 18.2872 170.129 18.0359 171.201 18.0359C172.811 18.0359 174.077 18.5424 175.003 19.5555C175.927 20.5686 176.389 22.005 176.389 23.8649V25.1467H168.897C168.998 25.9142 169.305 26.529 169.817 26.993C170.328 27.457 170.975 27.6871 171.757 27.6871C172.967 27.6871 173.914 27.2502 174.596 26.3744L176.14 28.1008C175.669 28.7659 175.03 29.286 174.226 29.6591C173.423 30.0322 172.53 30.2178 171.552 30.2178L171.548 30.2159ZM171.19 20.5647C170.566 20.5647 170.061 20.7754 169.673 21.1969C169.286 21.6184 169.036 22.2216 168.928 23.0065H173.299V22.7552C173.283 22.0572 173.095 21.5178 172.733 21.135C172.371 20.7542 171.856 20.5628 171.19 20.5628V20.5647Z" fill="#8979B6"/>
<path d="M178.194 15.2134C178.194 14.7436 178.351 14.355 178.667 14.0515C178.982 13.7479 179.412 13.5952 179.955 13.5952C180.497 13.5952 180.919 13.7479 181.238 14.0515C181.558 14.355 181.717 14.7436 181.717 15.2134C181.717 15.6832 181.556 16.0815 181.233 16.385C180.909 16.6885 180.483 16.8413 179.955 16.8413C179.426 16.8413 179 16.6885 178.676 16.385C178.353 16.0815 178.192 15.6909 178.192 15.2134H178.194ZM181.533 29.9995H178.38V18.2526H181.533V29.9995Z" fill="#8979B6"/>
<path d="M190.776 21.1952C190.348 21.1372 189.97 21.1082 189.645 21.1082C188.456 21.1082 187.677 21.5103 187.308 22.3126V29.9996H184.165V18.2526H187.133L187.22 19.6524C187.852 18.5736 188.725 18.0342 189.841 18.0342C190.189 18.0342 190.514 18.0806 190.818 18.1753L190.776 21.1932V21.1952Z" fill="#8979B6"/>
<path d="M198.824 29.9994C198.679 29.7171 198.574 29.3652 198.508 28.9457C197.747 29.7925 196.758 30.2159 195.54 30.2159C194.387 30.2159 193.433 29.8834 192.674 29.2164C191.916 28.5513 191.537 27.7103 191.537 26.6972C191.537 25.4522 192 24.4971 192.923 23.832C193.847 23.167 195.183 22.8306 196.93 22.8228H198.377V22.15C198.377 21.6068 198.237 21.1737 197.958 20.847C197.68 20.5222 197.238 20.3578 196.638 20.3578C196.109 20.3578 195.693 20.4854 195.393 20.7387C195.092 20.992 194.941 21.34 194.941 21.7808H191.798C191.798 21.1002 192.007 20.47 192.43 19.8919C192.85 19.3119 193.444 18.8595 194.213 18.5289C194.982 18.2002 195.844 18.0359 196.8 18.0359C198.251 18.0359 199.401 18.3994 200.253 19.1263C201.105 19.8532 201.531 20.876 201.531 22.1926V27.283C201.539 28.3986 201.694 29.2415 202 29.8118V29.9955H198.824V29.9994ZM196.225 27.8166C196.69 27.8166 197.116 27.7142 197.509 27.5073C197.9 27.3004 198.191 27.024 198.379 26.676V24.6576H197.205C195.633 24.6576 194.794 25.2008 194.693 26.2854L194.682 26.471C194.682 26.8616 194.819 27.1844 195.094 27.4377C195.369 27.691 195.747 27.8186 196.225 27.8186V27.8166Z" fill="#8979B6"/>
<path d="M25.7518 0.3538V43.8712C25.7518 44.2443 25.7421 44.6078 25.7247 44.9655C25.6801 45.472 25.6317 45.9573 25.5736 46.4135C25.5213 46.8505 25.4613 47.2642 25.3896 47.647C25.2154 48.4996 24.9791 49.2961 24.6731 50.0385C23.9547 51.7979 22.9302 53.2672 21.596 54.4427C20.2617 55.622 18.6621 56.5075 16.7972 57.1029C15.1899 57.6153 13.4141 57.9072 11.4679 57.9768C11.1542 57.9903 10.8366 57.9961 10.5132 57.9961C10.2498 57.9923 9.99225 57.9845 9.7405 57.9768C8.09444 57.9207 6.68077 57.7661 5.49948 57.507C4.25235 57.2344 1.25653 56.2735 0.228234 55.8733C0.0868668 55.8173 -0.00415039 55.6897 -0.00415039 55.5447V50.17C-0.00415039 49.9225 0.257282 49.7505 0.501285 49.8394C1.91302 50.3479 4.79265 51.2527 5.88485 51.4653C7.13392 51.707 8.474 51.8269 9.90897 51.8269C11.2006 51.8269 12.3916 51.6838 13.4819 51.4015C14.5722 51.1173 15.5056 50.6359 16.2802 49.9535C17.0548 49.2729 17.6571 48.3662 18.087 47.2313C18.5188 46.0945 18.7318 44.6929 18.7318 43.0186V0.3538C18.7318 0.1566 18.8984 0 19.1036 0H25.3741C25.5814 0 25.746 0.1566 25.746 0.3538H25.7518Z" fill="url(#paint0_linear_92_195)"/>
<path d="M58.0767 0.446593L36.9859 53.2691C36.8096 53.6964 35.7813 55.477 35.2391 56.0067C33.8429 57.3678 32.5706 57.4509 32.1697 57.42C32.0922 57.4258 32.0167 57.4239 31.9373 57.4161C31.5364 57.3852 30.5159 57.0817 29.5283 56.0319C28.7866 55.2431 28.2463 53.9806 28.1766 53.5843C27.9848 52.8051 27.8706 52.0183 27.706 50.5567C27.4891 48.6233 27.4562 47.4885 27.5143 46.3072C27.6479 43.6199 27.3768 39.9775 27.4387 35.8614C27.4426 35.5115 27.9577 35.4264 28.0817 35.757C29.7258 40.1515 31.4745 44.7702 32.9056 49.0371C32.923 49.0893 32.9695 49.1221 33.0218 49.1221C33.0741 49.1221 33.1205 49.0873 33.138 49.0371C35.2101 42.8543 37.4409 36.6115 39.8306 30.3166L51.1439 0.231993C51.1903 0.106327 51.3162 0.0231934 51.4557 0.0231934H57.7629C57.9934 0.0231934 58.1522 0.24166 58.0747 0.446593H58.0767Z" fill="url(#paint1_linear_92_195)"/>
<path d="M6.98895 0.45046C6.90761 0.243593 7.06641 0.0231934 7.30073 0.0231934H13.6119C13.7494 0.0231934 13.8733 0.104393 13.9217 0.226193L17.1674 8.19733V8.20119C17.1829 11.0065 17.1906 18.1579 16.9292 23.6621C16.9137 24.0062 16.416 24.0835 16.2882 23.7626L6.98895 0.45046Z" fill="url(#paint2_linear_92_195)"/>
</g>
<defs>
<linearGradient id="paint0_linear_92_195" x1="38.6472" y1="-13.3651" x2="-4.55692" y2="85.2276" gradientUnits="userSpaceOnUse">
<stop stop-color="#8979B6"/>
<stop offset="1" stop-color="#322B42"/>
</linearGradient>
<linearGradient id="paint1_linear_92_195" x1="54.3759" y1="-5.87154" x2="10.0808" y2="95.2087" gradientUnits="userSpaceOnUse">
<stop stop-color="#8979B6"/>
<stop offset="0.99" stop-color="#322B42"/>
</linearGradient>
<linearGradient id="paint2_linear_92_195" x1="25.7927" y1="-19.4919" x2="-4.87037" y2="50.4819" gradientUnits="userSpaceOnUse">
<stop stop-color="#8979B6"/>
<stop offset="0.99" stop-color="#322B42"/>
</linearGradient>
<clipPath id="clip0_92_195">
<rect width="202" height="58" fill="white"/>
</clipPath>
</defs>
</svg>
