<svg width="484" height="139" viewBox="0 0 484 139" fill="none" xmlns="http://www.w3.org/2000/svg">
<g clip-path="url(#clip0_92_2)">
<path d="M186.951 101.039V106.84H183.554V90.3685H189.99C191.229 90.3685 192.319 90.5956 193.257 91.045C194.194 91.4944 194.918 92.1385 195.428 92.9725C195.934 93.8065 196.189 94.7563 196.189 95.8173C196.189 97.4297 195.637 98.7039 194.528 99.6352C193.424 100.566 191.892 101.034 189.934 101.034H186.955L186.951 101.039ZM186.951 98.2915H189.985C190.886 98.2915 191.568 98.0784 192.041 97.6568C192.514 97.2351 192.751 96.6328 192.751 95.8451C192.751 95.0575 192.514 94.3856 192.036 93.8899C191.558 93.3941 190.904 93.1346 190.064 93.1207H186.951V98.2915Z" fill="#8979B6"/>
<path d="M204.031 107.067C202.235 107.067 200.769 106.516 199.641 105.418C198.514 104.32 197.948 102.851 197.948 101.016V100.701C197.948 99.4731 198.184 98.3704 198.662 97.402C199.14 96.4337 199.813 95.6877 200.685 95.1641C201.558 94.6406 202.551 94.3765 203.669 94.3765C205.344 94.3765 206.666 94.9047 207.627 95.9611C208.587 97.0175 209.07 98.514 209.07 100.451V101.785H201.265C201.372 102.587 201.692 103.226 202.221 103.708C202.75 104.19 203.428 104.431 204.244 104.431C205.506 104.431 206.49 103.977 207.2 103.064L208.81 104.862C208.318 105.557 207.655 106.099 206.815 106.483C205.975 106.868 205.047 107.067 204.026 107.067H204.031ZM203.655 97.0128C203.005 97.0128 202.476 97.2306 202.073 97.6708C201.669 98.1109 201.409 98.7411 201.298 99.5565H205.85V99.2971C205.836 98.5696 205.636 98.009 205.26 97.6105C204.884 97.2121 204.346 97.0128 203.65 97.0128H203.655Z" fill="#8979B6"/>
<path d="M218.048 97.6708C217.603 97.6105 217.208 97.5781 216.87 97.5781C215.631 97.5781 214.819 97.9951 214.434 98.8337V106.845H211.158V94.6035H214.253L214.346 96.063C215.004 94.9417 215.914 94.3765 217.074 94.3765C217.436 94.3765 217.774 94.4274 218.095 94.5247L218.048 97.6708Z" fill="#8979B6"/>
<path d="M219.83 91.4342C219.83 90.9431 219.992 90.54 220.322 90.2249C220.651 89.9098 221.097 89.7477 221.663 89.7477C222.229 89.7477 222.665 89.9052 222.999 90.2249C223.333 90.54 223.496 90.9431 223.496 91.4342C223.496 91.9253 223.329 92.3377 222.99 92.6574C222.651 92.9771 222.21 93.1346 221.658 93.1346C221.106 93.1346 220.665 92.9771 220.326 92.6574C219.988 92.3377 219.821 91.9346 219.821 91.4342H219.83ZM223.31 106.845H220.025V94.6034H223.31V106.845Z" fill="#8979B6"/>
<path d="M230.159 91.5964V94.6035H232.256V97.0035H230.159V103.11C230.159 103.564 230.247 103.889 230.419 104.083C230.59 104.278 230.924 104.375 231.416 104.375C231.778 104.375 232.098 104.347 232.381 104.296V106.775C231.741 106.97 231.077 107.067 230.4 107.067C228.103 107.067 226.934 105.909 226.887 103.592V96.9989H225.096V94.5988H226.887V91.5918H230.163L230.159 91.5964Z" fill="#8979B6"/>
<path d="M241.411 106.845C241.258 106.553 241.151 106.187 241.081 105.747C240.288 106.627 239.258 107.072 237.986 107.072C236.785 107.072 235.792 106.724 235.003 106.029C234.214 105.334 233.82 104.459 233.82 103.407C233.82 102.109 234.302 101.113 235.263 100.418C236.223 99.7233 237.615 99.3758 239.439 99.3666H240.947V98.6669C240.947 98.1017 240.803 97.6476 240.511 97.3094C240.218 96.9711 239.759 96.7997 239.132 96.7997C238.58 96.7997 238.149 96.9341 237.833 97.1935C237.518 97.453 237.365 97.819 237.365 98.2777H234.089C234.089 97.5688 234.307 96.9109 234.748 96.3086C235.184 95.7062 235.806 95.2336 236.604 94.8908C237.402 94.5479 238.302 94.3765 239.299 94.3765C240.807 94.3765 242.009 94.7564 242.895 95.5116C243.782 96.2669 244.227 97.3372 244.227 98.7086V104.014C244.236 105.177 244.399 106.052 244.714 106.65V106.845H241.406H241.411ZM238.706 104.57C239.188 104.57 239.634 104.463 240.042 104.245C240.45 104.028 240.752 103.74 240.947 103.379V101.275H239.722C238.084 101.275 237.211 101.841 237.105 102.971L237.095 103.166C237.095 103.574 237.239 103.907 237.527 104.171C237.815 104.435 238.204 104.565 238.706 104.565V104.57Z" fill="#8979B6"/>
<path d="M259.855 90.3732H263.251V101.776C263.251 102.823 263.019 103.75 262.555 104.551C262.091 105.353 261.437 105.974 260.588 106.414C259.743 106.849 258.788 107.072 257.72 107.072C255.976 107.072 254.616 106.627 253.642 105.742C252.667 104.857 252.18 103.601 252.18 101.98H255.6C255.6 102.786 255.772 103.384 256.11 103.768C256.449 104.153 256.987 104.347 257.72 104.347C258.37 104.347 258.885 104.125 259.27 103.68C259.655 103.235 259.85 102.601 259.85 101.78V90.3778L259.855 90.3732Z" fill="#8979B6"/>
<path d="M273.52 105.598C272.712 106.581 271.594 107.067 270.165 107.067C268.852 107.067 267.85 106.692 267.158 105.937C266.467 105.181 266.114 104.079 266.1 102.624V94.6034H269.376V102.517C269.376 103.791 269.956 104.431 271.121 104.431C272.285 104.431 272.995 104.046 273.408 103.277V94.6034H276.693V106.845H273.612L273.52 105.598Z" fill="#8979B6"/>
<path d="M278.883 100.631C278.883 98.7225 279.31 97.2028 280.169 96.0722C281.027 94.9417 282.196 94.3764 283.686 94.3764C284.878 94.3764 285.867 94.8212 286.642 95.7108V89.4651H289.927V106.84H286.971L286.813 105.538C285.997 106.557 284.948 107.067 283.663 107.067C282.22 107.067 281.064 106.502 280.192 105.367C279.32 104.232 278.883 102.656 278.883 100.631ZM282.159 100.877C282.159 102.026 282.359 102.906 282.758 103.518C283.157 104.13 283.742 104.435 284.503 104.435C285.514 104.435 286.229 104.009 286.642 103.157V98.3194C286.233 97.4669 285.528 97.0406 284.521 97.0406C282.943 97.0406 282.155 98.3194 282.155 100.882L282.159 100.877Z" fill="#8979B6"/>
<path d="M292.674 91.4342C292.674 90.9431 292.836 90.54 293.165 90.2249C293.495 89.9098 293.94 89.7477 294.506 89.7477C295.072 89.7477 295.509 89.9052 295.843 90.2249C296.177 90.54 296.339 90.9431 296.339 91.4342C296.339 91.9253 296.172 92.3377 295.833 92.6574C295.495 92.9771 295.054 93.1346 294.502 93.1346C293.95 93.1346 293.509 92.9771 293.17 92.6574C292.831 92.3377 292.664 91.9346 292.664 91.4342H292.674ZM296.154 106.845H292.868V94.6034H296.154V106.845Z" fill="#8979B6"/>
<path d="M304.181 104.435C304.784 104.435 305.276 104.269 305.652 103.94C306.028 103.606 306.227 103.166 306.241 102.615H309.313C309.303 103.444 309.081 104.204 308.635 104.894C308.19 105.585 307.577 106.122 306.807 106.502C306.032 106.882 305.178 107.072 304.241 107.072C302.487 107.072 301.109 106.516 300.093 105.404C299.081 104.292 298.576 102.754 298.576 100.794V100.581C298.576 98.6947 299.077 97.1889 300.084 96.0676C301.086 94.9464 302.464 94.3811 304.218 94.3811C305.749 94.3811 306.979 94.8166 307.907 95.6877C308.835 96.5588 309.303 97.7171 309.317 99.1673H306.246C306.232 98.5326 306.032 98.0136 305.656 97.6152C305.281 97.2167 304.779 97.0175 304.162 97.0175C303.401 97.0175 302.821 97.2955 302.436 97.8515C302.051 98.4075 301.852 99.3063 301.852 100.553V100.891C301.852 102.151 302.046 103.059 302.432 103.611C302.817 104.162 303.401 104.44 304.185 104.44L304.181 104.435Z" fill="#8979B6"/>
<path d="M311.391 91.4342C311.391 90.9431 311.554 90.54 311.883 90.2249C312.213 89.9098 312.658 89.7477 313.224 89.7477C313.79 89.7477 314.226 89.9052 314.561 90.2249C314.895 90.54 315.057 90.9431 315.057 91.4342C315.057 91.9253 314.89 92.3377 314.551 92.6574C314.213 92.9771 313.772 93.1346 313.22 93.1346C312.667 93.1346 312.227 92.9771 311.888 92.6574C311.549 92.3377 311.382 91.9346 311.382 91.4342H311.391ZM314.867 106.845H311.582V94.6034H314.867V106.845Z" fill="#8979B6"/>
<path d="M324.899 106.845C324.745 106.553 324.639 106.187 324.569 105.747C323.776 106.627 322.746 107.072 321.474 107.072C320.272 107.072 319.279 106.724 318.491 106.029C317.702 105.334 317.307 104.459 317.307 103.407C317.307 102.109 317.79 101.113 318.751 100.418C319.711 99.7233 321.103 99.3758 322.927 99.3666H324.435V98.6669C324.435 98.1017 324.291 97.6476 323.998 97.3094C323.706 96.9711 323.247 96.7997 322.62 96.7997C322.068 96.7997 321.637 96.9341 321.321 97.1935C321.006 97.453 320.852 97.819 320.852 98.2777H317.577C317.577 97.5688 317.795 96.9109 318.235 96.3086C318.672 95.7062 319.293 95.2336 320.091 94.8908C320.89 94.5479 321.79 94.3765 322.787 94.3765C324.295 94.3765 325.497 94.7564 326.383 95.5116C327.27 96.2669 327.715 97.3372 327.715 98.7086V104.014C327.724 105.177 327.887 106.052 328.202 106.65V106.845H324.894H324.899ZM322.189 104.57C322.671 104.57 323.117 104.463 323.525 104.245C323.933 104.028 324.235 103.74 324.43 103.379V101.275H323.205C321.567 101.275 320.695 101.841 320.588 102.971L320.579 103.166C320.579 103.574 320.723 103.907 321.01 104.171C321.298 104.435 321.688 104.565 322.189 104.565V104.57Z" fill="#8979B6"/>
<path d="M333.919 106.845H330.634V89.4697H333.919V106.845Z" fill="#8979B6"/>
<path d="M354.808 93.1207H349.755V106.84H346.359V93.1207H341.375V90.3732H354.813V93.1207H354.808Z" fill="#8979B6"/>
<path d="M362.914 97.6708C362.469 97.6105 362.074 97.5781 361.736 97.5781C360.497 97.5781 359.685 97.9951 359.3 98.8337V106.845H356.024V94.6035H359.119L359.211 96.063C359.87 94.9417 360.78 94.3765 361.94 94.3765C362.302 94.3765 362.64 94.4274 362.961 94.5247L362.914 97.6708Z" fill="#8979B6"/>
<path d="M371.484 106.845C371.331 106.553 371.224 106.187 371.155 105.747C370.361 106.627 369.331 107.072 368.06 107.072C366.858 107.072 365.865 106.724 365.076 106.029C364.288 105.334 363.893 104.459 363.893 103.407C363.893 102.109 364.376 101.113 365.336 100.418C366.297 99.7233 367.689 99.3758 369.512 99.3666H371.02V98.6669C371.02 98.1017 370.876 97.6476 370.584 97.3094C370.292 96.9711 369.832 96.7997 369.206 96.7997C368.654 96.7997 368.222 96.9341 367.907 97.1935C367.591 97.453 367.438 97.819 367.438 98.2777H364.162C364.162 97.5688 364.38 96.9109 364.821 96.3086C365.257 95.7062 365.879 95.2336 366.677 94.8908C367.475 94.5479 368.375 94.3765 369.373 94.3765C370.881 94.3765 372.083 94.7564 372.969 95.5116C373.855 96.2669 374.301 97.3372 374.301 98.7086V104.014C374.31 105.177 374.472 106.052 374.788 106.65V106.845H371.48H371.484ZM368.774 104.57C369.257 104.57 369.702 104.463 370.111 104.245C370.519 104.028 370.821 103.74 371.016 103.379V101.275H369.791C368.153 101.275 367.28 101.841 367.174 102.971L367.164 103.166C367.164 103.574 367.308 103.907 367.596 104.171C367.884 104.435 368.273 104.565 368.774 104.565V104.57Z" fill="#8979B6"/>
<path d="M388.095 100.835C388.095 102.795 387.678 104.324 386.838 105.422C385.998 106.52 384.829 107.067 383.326 107.067C381.994 107.067 380.936 106.557 380.143 105.538L379.994 106.84H377.048V89.4651H380.323V95.6969C381.08 94.8166 382.073 94.3718 383.302 94.3718C384.796 94.3718 385.97 94.9185 386.819 96.0166C387.669 97.1147 388.095 98.6576 388.095 100.65V100.831V100.835ZM384.824 100.599C384.824 99.3619 384.629 98.4584 384.235 97.8885C383.841 97.3186 383.256 97.036 382.481 97.036C381.437 97.036 380.723 97.4622 380.328 98.3148V103.143C380.727 104.004 381.451 104.431 382.504 104.431C383.558 104.431 384.258 103.912 384.588 102.869C384.745 102.374 384.824 101.614 384.824 100.594V100.599Z" fill="#8979B6"/>
<path d="M397.45 106.845C397.297 106.553 397.19 106.187 397.12 105.747C396.327 106.627 395.297 107.072 394.025 107.072C392.824 107.072 391.831 106.724 391.042 106.029C390.253 105.334 389.859 104.459 389.859 103.407C389.859 102.109 390.341 101.113 391.302 100.418C392.262 99.7233 393.654 99.3758 395.478 99.3666H396.986V98.6669C396.986 98.1017 396.842 97.6476 396.55 97.3094C396.257 96.9711 395.798 96.7997 395.172 96.7997C394.619 96.7997 394.188 96.9341 393.872 97.1935C393.557 97.453 393.404 97.819 393.404 98.2777H390.128C390.128 97.5688 390.346 96.9109 390.787 96.3086C391.223 95.7062 391.845 95.2336 392.643 94.8908C393.441 94.5479 394.341 94.3765 395.339 94.3765C396.847 94.3765 398.048 94.7564 398.935 95.5116C399.821 96.2669 400.266 97.3372 400.266 98.7086V104.014C400.276 105.177 400.438 106.052 400.753 106.65V106.845H397.445H397.45ZM394.74 104.57C395.223 104.57 395.668 104.463 396.076 104.245C396.485 104.028 396.786 103.74 396.981 103.379V101.275H395.756C394.118 101.275 393.246 101.841 393.139 102.971L393.13 103.166C393.13 103.574 393.274 103.907 393.561 104.171C393.849 104.435 394.239 104.565 394.74 104.565V104.57Z" fill="#8979B6"/>
<path d="M406.47 106.845H403.185V89.4697H406.47V106.845Z" fill="#8979B6"/>
<path d="M412.595 95.9379C413.462 94.8954 414.553 94.3764 415.871 94.3764C418.529 94.3764 419.875 95.9193 419.917 99.0051V106.845H416.641V99.0978C416.641 98.3982 416.488 97.8792 416.186 97.541C415.885 97.2074 415.383 97.036 414.678 97.036C413.718 97.036 413.026 97.4066 412.595 98.1433V106.84H409.319V89.4651H412.595V95.9332V95.9379Z" fill="#8979B6"/>
<path d="M422.589 91.4342C422.589 90.9431 422.752 90.54 423.081 90.2249C423.411 89.9098 423.856 89.7477 424.422 89.7477C424.988 89.7477 425.424 89.9052 425.759 90.2249C426.093 90.54 426.255 90.9431 426.255 91.4342C426.255 91.9253 426.088 92.3377 425.749 92.6574C425.411 92.9771 424.97 93.1346 424.418 93.1346C423.865 93.1346 423.425 92.9771 423.086 92.6574C422.747 92.3377 422.58 91.9346 422.58 91.4342H422.589ZM426.069 106.845H422.784V94.6034H426.069V106.845Z" fill="#8979B6"/>
<path d="M435.632 103.462C435.632 103.064 435.433 102.749 435.039 102.517C434.644 102.286 434.004 102.082 433.131 101.901C430.218 101.289 428.761 100.052 428.761 98.1897C428.761 97.1055 429.211 96.1974 430.115 95.4699C431.02 94.7425 432.199 94.3765 433.656 94.3765C435.21 94.3765 436.454 94.7425 437.386 95.4746C438.319 96.2066 438.788 97.1565 438.788 98.3241H435.512C435.512 97.8561 435.359 97.4715 435.057 97.1657C434.755 96.8599 434.282 96.707 433.642 96.707C433.09 96.707 432.663 96.8321 432.361 97.0823C432.06 97.3325 431.907 97.6476 431.907 98.0322C431.907 98.3936 432.078 98.6855 432.422 98.9079C432.765 99.1303 433.345 99.3249 434.162 99.487C434.978 99.6492 435.665 99.8345 436.222 100.034C437.952 100.669 438.816 101.767 438.816 103.323C438.816 104.44 438.338 105.344 437.377 106.034C436.417 106.724 435.178 107.067 433.66 107.067C432.635 107.067 431.721 106.882 430.923 106.52C430.125 106.159 429.503 105.654 429.048 105.015C428.594 104.375 428.371 103.689 428.371 102.948H431.475C431.503 103.527 431.721 103.972 432.12 104.283C432.519 104.593 433.057 104.746 433.73 104.746C434.356 104.746 434.83 104.625 435.15 104.389C435.47 104.153 435.632 103.842 435.632 103.458V103.462Z" fill="#8979B6"/>
<path d="M445.075 91.5964V94.6035H447.172V97.0035H445.075V103.11C445.075 103.564 445.163 103.889 445.335 104.083C445.506 104.278 445.84 104.375 446.332 104.375C446.694 104.375 447.014 104.347 447.297 104.296V106.775C446.657 106.97 445.994 107.067 445.316 107.067C443.019 107.067 441.85 105.909 441.804 103.592V96.9989H440.013V94.5988H441.804V91.5918H445.08L445.075 91.5964Z" fill="#8979B6"/>
<path d="M456.332 106.845C456.178 106.553 456.072 106.187 456.002 105.747C455.209 106.627 454.179 107.072 452.907 107.072C451.705 107.072 450.713 106.724 449.924 106.029C449.135 105.334 448.741 104.459 448.741 103.407C448.741 102.109 449.223 101.113 450.184 100.418C451.144 99.7233 452.536 99.3758 454.36 99.3666H455.868V98.6669C455.868 98.1017 455.724 97.6476 455.431 97.3094C455.139 96.9711 454.68 96.7997 454.053 96.7997C453.501 96.7997 453.07 96.9341 452.754 97.1935C452.439 97.453 452.285 97.819 452.285 98.2777H449.01C449.01 97.5688 449.228 96.9109 449.669 96.3086C450.105 95.7062 450.726 95.2336 451.525 94.8908C452.323 94.5479 453.223 94.3765 454.22 94.3765C455.728 94.3765 456.93 94.7564 457.816 95.5116C458.703 96.2669 459.148 97.3372 459.148 98.7086V104.014C459.157 105.177 459.32 106.052 459.635 106.65V106.845H456.327H456.332ZM453.622 104.57C454.104 104.57 454.55 104.463 454.958 104.245C455.366 104.028 455.668 103.74 455.863 103.379V101.275H454.638C453 101.275 452.128 101.841 452.021 102.971L452.012 103.166C452.012 103.574 452.156 103.907 452.443 104.171C452.731 104.435 453.121 104.565 453.622 104.565V104.57Z" fill="#8979B6"/>
<path d="M175.402 34.0133H183.22V60.238C183.22 62.6473 182.687 64.7786 181.619 66.6273C180.552 68.476 179.044 69.9031 177.1 70.9085C175.156 71.914 172.957 72.419 170.507 72.419C166.493 72.419 163.366 71.3997 161.129 69.361C158.888 67.3223 157.77 64.4404 157.77 60.7106H165.639C165.639 62.5685 166.029 63.9354 166.813 64.8203C167.597 65.7053 168.827 66.1455 170.511 66.1455C172.005 66.1455 173.193 65.6358 174.079 64.6118C174.966 63.5879 175.406 62.133 175.406 60.2426V34.0179L175.402 34.0133Z" fill="#8979B6"/>
<path d="M206.406 69.0321C204.546 71.2886 201.975 72.4145 198.695 72.4145C195.674 72.4145 193.368 71.548 191.776 69.8105C190.19 68.0777 189.373 65.534 189.34 62.1887V43.7434H196.871V61.9524C196.871 64.8853 198.208 66.3541 200.885 66.3541C203.562 66.3541 205.191 65.4691 206.147 63.6992V43.748H213.701V71.9002H206.615L206.406 69.0368V69.0321Z" fill="#8979B6"/>
<path d="M227.435 71.8955H219.881V31.933H227.435V71.8955Z" fill="#8979B6"/>
<path d="M233.69 36.4598C233.69 35.3339 234.066 34.4026 234.822 33.6751C235.578 32.9477 236.608 32.5817 237.907 32.5817C239.207 32.5817 240.218 32.9477 240.984 33.6751C241.749 34.4026 242.13 35.3339 242.13 36.4598C242.13 37.5857 241.745 38.5401 240.97 39.2676C240.195 39.995 239.174 40.361 237.907 40.361C236.641 40.361 235.62 39.995 234.845 39.2676C234.07 38.5401 233.685 37.6042 233.685 36.4598H233.69ZM241.689 71.8955H234.135V43.7434H241.689V71.8955Z" fill="#8979B6"/>
<path d="M264.332 71.8954C263.984 71.219 263.734 70.3757 263.576 69.3703C261.753 71.3997 259.381 72.4144 256.463 72.4144C253.702 72.4144 251.415 71.6174 249.596 70.0189C247.781 68.4251 246.872 66.4096 246.872 63.9817C246.872 60.9978 247.981 58.709 250.194 57.1151C252.408 55.5212 255.609 54.715 259.794 54.6965H263.261V53.0841C263.261 51.7821 262.926 50.7443 262.258 49.9612C261.59 49.1828 260.532 48.789 259.094 48.789C257.827 48.789 256.829 49.0948 256.11 49.7018C255.391 50.3087 255.029 51.1427 255.029 52.1991H247.498C247.498 50.5682 248.004 49.0577 249.011 47.6724C250.018 46.287 251.442 45.1982 253.284 44.4059C255.127 43.6182 257.191 43.2244 259.484 43.2244C262.959 43.2244 265.715 44.0954 267.757 45.8376C269.798 47.5797 270.819 50.0307 270.819 53.186V65.3856C270.838 68.059 271.209 70.0792 271.937 71.446V71.8862H264.328L264.332 71.8954ZM258.105 66.6644C259.214 66.6644 260.24 66.4188 261.182 65.9231C262.119 65.4273 262.815 64.7647 263.265 63.9307V59.0935H260.453C256.686 59.0935 254.676 60.3955 254.435 62.9948L254.407 63.4396C254.407 64.3755 254.737 65.1493 255.396 65.7563C256.055 66.3632 256.959 66.669 258.105 66.669V66.6644Z" fill="#8979B6"/>
<path d="M283.644 43.7433L283.881 46.9959C285.895 44.48 288.595 43.2244 291.982 43.2244C294.97 43.2244 297.193 44.1001 298.655 45.8515C300.116 47.6029 300.859 50.2207 300.896 53.7096V71.8954H293.365V53.8903C293.365 52.2964 293.017 51.1381 292.321 50.4153C291.625 49.6971 290.47 49.3357 288.855 49.3357C286.734 49.3357 285.147 50.2392 284.085 52.0416V71.8908H276.554V43.7387H283.639L283.644 43.7433Z" fill="#8979B6"/>
<path d="M323.043 71.8954C322.695 71.219 322.444 70.3757 322.286 69.3703C320.463 71.3997 318.092 72.4144 315.173 72.4144C312.412 72.4144 310.125 71.6174 308.306 70.0189C306.492 68.4251 305.582 66.4096 305.582 63.9817C305.582 60.9978 306.691 58.709 308.904 57.1151C311.118 55.5212 314.319 54.715 318.505 54.6965H321.971V53.0841C321.971 51.7821 321.637 50.7443 320.968 49.9612C320.3 49.1828 319.242 48.789 317.804 48.789C316.537 48.789 315.54 49.0948 314.82 49.7018C314.101 50.3087 313.739 51.1427 313.739 52.1991H306.209C306.209 50.5682 306.71 49.0577 307.721 47.6724C308.728 46.2824 310.153 45.1982 311.995 44.4059C313.837 43.6182 315.902 43.2244 318.194 43.2244C321.669 43.2244 324.425 44.0954 326.467 45.8376C328.508 47.5797 329.529 50.0307 329.529 53.186V65.3856C329.548 68.059 329.919 70.0792 330.652 71.446V71.8862H323.043V71.8954ZM316.816 66.6644C317.929 66.6644 318.95 66.4188 319.892 65.9231C320.829 65.4273 321.525 64.7647 321.975 63.9307V59.0935H319.163C315.396 59.0935 313.387 60.3955 313.145 62.9948L313.118 63.4396C313.118 64.3755 313.447 65.1493 314.106 65.7563C314.765 66.3632 315.669 66.669 316.816 66.669V66.6644Z" fill="#8979B6"/>
<path d="M363.327 62.5037L371.925 34.0133H380.625L367.415 71.8954H359.258L346.099 34.0133H354.776L363.322 62.5037H363.327Z" fill="#8979B6"/>
<path d="M383.757 36.4598C383.757 35.3339 384.133 34.4026 384.889 33.6751C385.646 32.9477 386.676 32.5817 387.975 32.5817C389.274 32.5817 390.286 32.9477 391.051 33.6751C391.817 34.4026 392.197 35.3339 392.197 36.4598C392.197 37.5857 391.812 38.5401 391.037 39.2676C390.262 39.995 389.242 40.361 387.975 40.361C386.708 40.361 385.687 39.995 384.912 39.2676C384.138 38.5401 383.752 37.6042 383.752 36.4598H383.757ZM391.756 71.8955H384.203V43.7434H391.756V71.8955Z" fill="#8979B6"/>
<path d="M411.036 72.4144C406.901 72.4144 403.538 71.1495 400.939 68.615C398.341 66.0852 397.046 62.7075 397.046 58.4958V57.7684C397.046 54.9421 397.594 52.4123 398.689 50.1836C399.784 47.955 401.333 46.236 403.338 45.0314C405.342 43.8267 407.635 43.2244 410.205 43.2244C414.061 43.2244 417.096 44.4383 419.314 46.8662C421.527 49.294 422.636 52.7366 422.636 57.1939V60.2658H404.684C404.925 62.1052 405.663 63.5786 406.888 64.6906C408.113 65.8026 409.662 66.354 411.537 66.354C414.437 66.354 416.706 65.3068 418.339 63.2079L422.037 67.3455C420.91 68.9394 419.378 70.1857 417.453 71.08C415.527 71.9742 413.388 72.419 411.045 72.419L411.036 72.4144ZM410.177 49.2848C408.683 49.2848 407.472 49.7898 406.544 50.7999C405.616 51.8099 405.018 53.2555 404.758 55.1367H415.23V54.5343C415.193 52.8617 414.743 51.569 413.875 50.6516C413.008 49.7388 411.774 49.2801 410.177 49.2801V49.2848Z" fill="#8979B6"/>
<path d="M426.96 36.4598C426.96 35.3339 427.336 34.4026 428.092 33.6751C428.849 32.9477 429.879 32.5817 431.178 32.5817C432.477 32.5817 433.489 32.9477 434.254 33.6751C435.02 34.4026 435.4 35.3339 435.4 36.4598C435.4 37.5857 435.015 38.5401 434.24 39.2676C433.466 39.995 432.445 40.361 431.178 40.361C429.911 40.361 428.891 39.995 428.116 39.2676C427.341 38.5401 426.956 37.6042 426.956 36.4598H426.96ZM434.96 71.8955H427.406V43.7434H434.96V71.8955Z" fill="#8979B6"/>
<path d="M457.106 50.7952C456.081 50.6562 455.176 50.5867 454.397 50.5867C451.548 50.5867 449.682 51.5505 448.796 53.4733V71.8954H441.265V43.7433H448.379L448.587 47.0978C450.1 44.5124 452.193 43.2197 454.865 43.2197C455.701 43.2197 456.48 43.3309 457.209 43.558L457.106 50.7906V50.7952Z" fill="#8979B6"/>
<path d="M476.39 71.8954C476.042 71.219 475.792 70.3757 475.634 69.3703C473.81 71.3997 471.439 72.4144 468.521 72.4144C465.76 72.4144 463.473 71.6174 461.654 70.0189C459.839 68.4251 458.93 66.4096 458.93 63.9817C458.93 60.9978 460.039 58.709 462.252 57.1151C464.465 55.5212 467.667 54.715 471.852 54.6965H475.319V53.0841C475.319 51.7821 474.984 50.7443 474.316 49.9612C473.648 49.1828 472.59 48.789 471.152 48.789C469.885 48.789 468.887 49.0948 468.168 49.7018C467.449 50.3087 467.087 51.1427 467.087 52.1991H459.556C459.556 50.5682 460.057 49.0577 461.069 47.6724C462.076 46.2824 463.5 45.1982 465.342 44.4059C467.185 43.6182 469.249 43.2244 471.542 43.2244C475.017 43.2244 477.773 44.0954 479.815 45.8376C481.856 47.5797 482.877 50.0307 482.877 53.186V65.3856C482.896 68.059 483.267 70.0792 484 71.446V71.8862H476.39V71.8954ZM470.163 66.6644C471.277 66.6644 472.298 66.4188 473.24 65.9231C474.177 65.4273 474.873 64.7647 475.323 63.9307V59.0935H472.511C468.744 59.0935 466.734 60.3955 466.493 62.9948L466.465 63.4396C466.465 64.3755 466.795 65.1493 467.454 65.7563C468.113 66.3632 469.017 66.669 470.163 66.669V66.6644Z" fill="#8979B6"/>
<path d="M61.7028 0.8479V105.14C61.7028 106.034 61.6796 106.905 61.6378 107.762C61.5311 108.976 61.4151 110.139 61.2759 111.232C61.1506 112.28 61.0068 113.271 60.8351 114.188C60.4175 116.232 59.8514 118.141 59.1183 119.92C57.3969 124.136 54.9423 127.658 51.7453 130.475C48.5484 133.301 44.7157 135.423 40.2474 136.85C36.3962 138.078 32.1413 138.778 27.4781 138.944C26.7264 138.977 25.9654 138.991 25.1905 138.991C24.5595 138.981 23.9424 138.963 23.3392 138.944C19.3951 138.81 16.0079 138.439 13.1775 137.819C10.1894 137.165 3.01125 134.862 0.547402 133.903C0.208681 133.769 -0.00939941 133.463 -0.00939941 133.116V120.235C-0.00939941 119.642 0.617003 119.23 1.20164 119.443C4.58422 120.661 11.4839 122.83 14.1009 123.339C17.0937 123.919 20.3046 124.206 23.7428 124.206C26.8377 124.206 29.6913 123.863 32.3037 123.186C34.916 122.505 37.1525 121.352 39.0085 119.716C40.8645 118.085 42.3075 115.912 43.3376 113.192C44.3723 110.468 44.8828 107.109 44.8828 103.096V0.8479C44.8828 0.3753 45.2818 0 45.7736 0H60.798C61.2945 0 61.6889 0.3753 61.6889 0.8479H61.7028Z" fill="url(#paint0_linear_92_2)"/>
<path d="M139.154 1.07024L88.6196 127.662C88.1974 128.686 85.7335 132.953 84.4343 134.223C81.0889 137.485 78.0404 137.684 77.0799 137.61C76.8943 137.624 76.7133 137.619 76.5231 137.601C75.5626 137.527 73.1173 136.799 70.7509 134.283C68.9738 132.393 67.6792 129.367 67.5122 128.417C67.0528 126.55 66.7791 124.664 66.3847 121.162C65.865 116.528 65.7861 113.809 65.9253 110.978C66.2455 104.537 65.5959 95.808 65.7443 85.9436C65.7536 85.105 66.9879 84.9011 67.2848 85.6934C71.2242 96.225 75.4141 107.294 78.8431 117.52C78.8849 117.645 78.9962 117.724 79.1215 117.724C79.2468 117.724 79.3581 117.64 79.3999 117.52C84.3647 102.702 89.71 87.7414 95.4358 72.6552L122.543 0.555942C122.654 0.254775 122.956 0.055542 123.29 0.055542H138.402C138.955 0.055542 139.335 0.579109 139.149 1.07024H139.154Z" fill="url(#paint1_linear_92_2)"/>
<path d="M16.7458 1.07951C16.5509 0.583742 16.9314 0.055542 17.4929 0.055542H32.6147C32.9441 0.055542 33.2411 0.250142 33.3571 0.542042L41.1337 19.6453V19.6545C41.1709 26.3775 41.1894 43.5162 40.563 56.7073C40.5259 57.532 39.3334 57.7174 39.0272 56.9482L16.7458 1.07951Z" fill="url(#paint2_linear_92_2)"/>
</g>
<defs>
<linearGradient id="paint0_linear_92_2" x1="92.6007" y1="-32.0302" x2="-10.9551" y2="204.236" gradientUnits="userSpaceOnUse">
<stop stop-color="#8979B6"/>
<stop offset="1" stop-color="#322B42"/>
</linearGradient>
<linearGradient id="paint1_linear_92_2" x1="130.287" y1="-14.0715" x2="24.1159" y2="228.156" gradientUnits="userSpaceOnUse">
<stop stop-color="#8979B6"/>
<stop offset="0.99" stop-color="#322B42"/>
</linearGradient>
<linearGradient id="paint2_linear_92_2" x1="61.8004" y1="-46.7133" x2="-11.6959" y2="120.971" gradientUnits="userSpaceOnUse">
<stop stop-color="#8979B6"/>
<stop offset="0.99" stop-color="#322B42"/>
</linearGradient>
<clipPath id="clip0_92_2">
<rect width="484" height="139" fill="white"/>
</clipPath>
</defs>
</svg>
