<svg width="47" height="47" viewBox="0 0 47 47" fill="none" xmlns="http://www.w3.org/2000/svg">
<circle cx="23.5" cy="23.5" r="23.5" fill="#1E1E1E"/>
<path d="M33.2111 14.2976C30.7678 11.8553 27.5146 10.5172 24.0523 10.5172C16.9186 10.5172 11.1045 16.2983 11.1045 23.3916C11.1045 25.6651 11.7055 27.8736 12.8291 29.8223L11 36.4998L17.8593 34.707C19.7538 35.7333 21.8834 36.279 24.0523 36.279C31.1859 36.279 37 30.4978 37 23.4046C37 19.9619 35.6543 16.727 33.2111 14.2976ZM24.0523 34.0964C22.1186 34.0964 20.2241 33.5768 18.5648 32.6024L18.1729 32.3686L14.0965 33.4339L15.1809 29.4845L14.9196 29.0818C13.8482 27.3799 13.2734 25.4052 13.2734 23.3916C13.2734 17.4935 18.1075 12.6867 24.0392 12.6867C26.9136 12.6867 29.6181 13.804 31.6432 15.8306C33.6814 17.8573 34.792 20.5465 34.792 23.4046C34.8181 29.3026 29.9839 34.0964 24.0523 34.0964ZM29.9578 26.0938C29.6312 25.9379 28.0372 25.1584 27.7497 25.0415C27.4492 24.9375 27.2402 24.8856 27.0181 25.1974C26.796 25.5222 26.1819 26.2497 25.999 26.4575C25.8161 26.6784 25.6201 26.7044 25.2935 26.5355C24.9668 26.3796 23.9216 26.0288 22.6935 24.9375C21.7266 24.0801 21.0864 23.0278 20.8905 22.703C20.7075 22.3782 20.8643 22.2094 21.0342 22.0405C21.1779 21.8976 21.3608 21.6637 21.5176 21.4818C21.6744 21.3 21.7397 21.1571 21.8442 20.9492C21.9487 20.7283 21.8965 20.5465 21.8181 20.3906C21.7397 20.2347 21.0864 18.6497 20.8251 18.0002C20.5638 17.3766 20.2894 17.4545 20.0935 17.4415C19.8975 17.4415 19.6884 17.4415 19.4663 17.4415C19.2442 17.4415 18.9045 17.5195 18.604 17.8443C18.3166 18.1691 17.4804 18.9485 17.4804 20.5335C17.4804 22.1184 18.6432 23.6514 18.8 23.8593C18.9568 24.0801 21.0864 27.3279 24.3266 28.718C25.0975 29.0558 25.6985 29.2507 26.1688 29.3936C26.9397 29.6404 27.6452 29.6014 28.207 29.5235C28.8342 29.4325 30.1276 28.744 30.3889 27.9905C30.6633 27.237 30.6633 26.6004 30.5719 26.4575C30.4804 26.3146 30.2844 26.2497 29.9578 26.0938Z" fill="#8979B6"/>
</svg>
